<svg width="321" height="193" viewBox="0 0 321 193" fill="none" xmlns="http://www.w3.org/2000/svg">
<g filter="url(#filter0_d_1_2326)">
<mask id="path-1-inside-1_1_2326" fill="white">
<path d="M35.8071 9.68301C35.8071 6.67395 38.2465 4.23462 41.2555 4.23462H280.423C283.432 4.23462 285.871 6.67395 285.871 9.68301V173.23C285.871 173.66 285.523 174.009 285.093 174.009H36.5855C36.1556 174.009 35.8071 173.66 35.8071 173.23V9.68301Z"/>
</mask>
<path d="M35.8071 9.68301C35.8071 6.67395 38.2465 4.23462 41.2555 4.23462H280.423C283.432 4.23462 285.871 6.67395 285.871 9.68301V173.23C285.871 173.66 285.523 174.009 285.093 174.009H36.5855C36.1556 174.009 35.8071 173.66 35.8071 173.23V9.68301Z" stroke="#003732" stroke-width="2" mask="url(#path-1-inside-1_1_2326)"/>
<rect x="42.7424" y="14.2347" width="234.968" height="146.097" fill="white" stroke="#003732"/>
<path d="M141.419 68.5L154.455 81.1841L180.074 55.6148" stroke="#003732"/>
<rect x="100.275" y="104.735" width="120" height="25" fill="#CCD7D6" stroke="#003732"/>
<path d="M239.493 130.586L228.396 133.437L228.955 134.05L228.956 134.051L228.957 134.052C228.958 134.053 228.959 134.055 228.961 134.057C228.965 134.061 228.971 134.068 228.979 134.076C228.995 134.094 229.019 134.12 229.05 134.154C229.111 134.222 229.202 134.323 229.32 134.453C229.555 134.712 229.895 135.088 230.315 135.554C231.154 136.487 232.313 137.78 233.59 139.223C236.143 142.107 239.159 145.578 241.039 147.958L241.039 147.959C242.067 149.322 241.719 150.783 240.692 151.561C239.723 152.294 238.105 152.037 236.973 150.715C235.28 148.739 232.272 145.315 229.688 142.388C228.396 140.924 227.211 139.583 226.347 138.608C225.915 138.121 225.564 137.725 225.321 137.451C225.2 137.314 225.105 137.207 225.041 137.135L224.949 137.032C224.947 137.03 224.946 137.028 224.945 137.026L224.944 137.026L224.943 137.025L224.453 136.472L224.122 137.133L218.105 149.176L208.645 112.347L239.493 130.586Z" fill="white" stroke="#003732"/>
<mask id="path-6-inside-2_1_2326" fill="white">
<path d="M5.77441 173.172C5.77441 172.957 5.94865 172.783 6.16358 172.783H314.288C314.503 172.783 314.677 172.957 314.677 173.172V178.299H5.77441V173.172Z"/>
</mask>
<path d="M4.77441 173.172C4.77441 172.405 5.39637 171.783 6.16358 171.783H314.288C315.055 171.783 315.677 172.405 315.677 173.172L313.677 173.783H6.77441L4.77441 173.172ZM314.677 178.299H5.77441H314.677ZM4.77441 178.299V173.172C4.77441 172.405 5.39637 171.783 6.16358 171.783L6.77441 173.783V178.299H4.77441ZM314.288 171.783C315.055 171.783 315.677 172.405 315.677 173.172V178.299H313.677V173.783L314.288 171.783Z" fill="#003732" mask="url(#path-6-inside-2_1_2326)"/>
<path d="M311.996 178.799L309.807 179.646C300.913 183.084 291.459 184.848 281.924 184.848H38.208C27.9112 184.848 17.72 182.79 8.23047 178.799H311.996Z" stroke="#003732"/>
<path d="M185.388 173.283C185.014 175.159 183.357 176.573 181.371 176.573H139.387C137.401 176.573 135.744 175.159 135.37 173.283H185.388Z" stroke="#003732"/>
</g>
<defs>
<filter id="filter0_d_1_2326" x="-8.05855e-05" y="-1.03712e-05" width="320.452" height="192.662" filterUnits="userSpaceOnUse" color-interpolation-filters="sRGB">
<feFlood flood-opacity="0" result="BackgroundImageFix"/>
<feColorMatrix in="SourceAlpha" type="matrix" values="0 0 0 0 0 0 0 0 0 0 0 0 0 0 0 0 0 0 127 0" result="hardAlpha"/>
<feOffset dy="1.53987"/>
<feGaussianBlur stdDeviation="2.88725"/>
<feComposite in2="hardAlpha" operator="out"/>
<feColorMatrix type="matrix" values="0 0 0 0 0 0 0 0 0 0 0 0 0 0 0 0 0 0 0.1 0"/>
<feBlend mode="normal" in2="BackgroundImageFix" result="effect1_dropShadow_1_2326"/>
<feBlend mode="normal" in="SourceGraphic" in2="effect1_dropShadow_1_2326" result="shape"/>
</filter>
</defs>
</svg>
